<?xml version="1.0" encoding="UTF-8"?>
<svg id="_Слой_1" data-name="Слой 1" xmlns="http://www.w3.org/2000/svg" viewBox="0 0 567.42 567.24">
  <defs>
    <style>
      .cls-1 {
        fill: #fff;
      }
    </style>
  </defs>
  <path class="cls-1" d="m93.56,563.94c-91.51-19.88-124.9-134.65-58.47-200.97,38.19-38.13,115.47-48.34,115.47-15.26,0,14.84-5.77,18.83-26.49,18.33-58.03-1.42-99.9,47.9-86.45,101.82,23.92,95.83,160.82,77.93,162.12-21.21.48-36.52,33.49-44.63,37.28-9.16,8.41,78.53-65.25,143.45-143.47,126.46Zm328.8.55c-56.36-11.84-93.82-58.22-94.08-116.48-.11-24.14,3.44-30.42,17.77-31.49,14.73-1.1,18.9,5.27,19.26,29.45.87,58.67,52,98.6,105.05,82.03,93.05-29.05,69.38-166.18-27.94-161.85-19.3.86-27.09-3.95-28.17-17.39-2.61-32.56,72.75-25.24,112.75,10.95,89.37,80.86,13.38,229.57-104.65,204.78h0Zm14.77-98.09c-2.77-1.54-11.73-10.08-19.93-18.99-106.08-115.28-151.95-116.88-259.44-9.03-29.09,29.19-33.95,31.96-46.54,26.57-19.57-8.37-16.11-25.15,10.14-49.25,113.43-104.13,114.95-149.93,8.47-256.2-15.34-15.31-27.67-28.61-28.61-30.86-6.18-14.8,2.82-28.68,18.54-28.59,11.02.06,10.88-.04,43.08,31.83,103.45,102.39,140.48,102.13,244.53-1.7,15.18-15.15,29.34-28.27,31.46-29.16,17.13-7.16,33.03,8.29,27.95,27.16-1.25,4.64-5.11,9.08-29.24,33.59-105.51,107.2-103.85,149.65,10.06,256.82,16.92,15.92,18.94,18.7,19.98,27.52,2.07,17.47-15.02,28.86-30.44,20.29h0ZM95.36,237.43C-9.19,214.74-34.86,79.91,54.02,20.3c79.13-53.06,184.13,4.03,184.09,100.1-.01,24.17-3.55,30.42-17.84,31.49-14.74,1.1-18.95-5.33-19.3-29.49-1.1-76.97-86.49-114.46-139.74-61.35-53.54,53.41-16.96,140.1,59.47,140.95,24.23.27,30.23,3.65,31.36,17.65,1.42,17.7-22.52,25.21-56.7,17.78h0Zm334.35,1.16c-9.56-2.26-15.05-10.02-14.12-19.99,1.25-13.49,6.5-16.68,26.68-16.22,67.27,1.52,108.26-61.17,78.99-120.79-38.37-78.12-153.76-48.18-154.7,40.14-.39,36.53-33.47,44.67-37.27,9.17-14.57-136.05,178.17-182.05,230.4-54.99,33.41,81.28-47.23,182.21-129.97,162.68h0Z"/>
</svg>